# Blender 4.2.9 LTS
# www.blender.org
mtllib dirtmouth_doors.mtl
g doors_Mesh
v -9.404965 -0.988194 9.678877
v -9.090578 -0.988194 9.494496
v -8.776190 -0.988194 9.310116
v -8.461803 -0.988194 9.125734
v -8.147415 -0.988194 8.941353
v -7.833028 -0.988194 8.756972
v -7.518641 -0.988194 8.572592
v -7.204253 -0.988194 8.388210
v -6.889866 -0.988194 8.203830
v -6.575479 -0.988194 8.019448
v -6.261091 -0.988194 7.835067
v -9.404965 -0.477206 9.678877
v -9.090578 -0.477206 9.494496
v -8.776190 -0.477207 9.310116
v -8.461803 -0.477207 9.125734
v -8.147415 -0.477207 8.941353
v -7.833028 -0.477207 8.756972
v -7.518641 -0.477207 8.572592
v -7.204253 -0.477207 8.388210
v -6.889866 -0.477207 8.203830
v -6.575479 -0.477207 8.019448
v -6.261091 -0.477207 7.835067
v -9.404965 0.033781 9.678877
v -9.090578 0.033781 9.494496
v -8.776190 0.033781 9.310116
v -8.461803 0.033781 9.125734
v -8.147415 0.033781 8.941353
v -7.833028 0.033781 8.756972
v -7.518641 0.033781 8.572592
v -7.204253 0.033781 8.388210
v -6.889866 0.033781 8.203830
v -6.575479 0.033781 8.019448
v -6.261091 0.033781 7.835067
v -9.404965 0.544769 9.678877
v -9.090578 0.544769 9.494496
v -8.776190 0.544769 9.310116
v -8.461803 0.544769 9.125734
v -8.147415 0.544769 8.941353
v -7.833028 0.544769 8.756972
v -7.518641 0.544769 8.572592
v -7.204253 0.544769 8.388210
v -6.889866 0.544769 8.203830
v -6.575479 0.544769 8.019448
v -6.261091 0.544769 7.835067
v -9.404965 1.055756 9.678877
v -9.090578 1.055756 9.494496
v -8.776190 1.055756 9.310116
v -8.461803 1.055756 9.125734
v -8.147415 1.055756 8.941353
v -7.833028 1.055756 8.756972
v -7.518641 1.055756 8.572592
v -7.204253 1.055756 8.388210
v -6.889866 1.055756 8.203830
v -6.575479 1.055756 8.019448
v -6.261091 1.055756 7.835067
v -9.404965 1.566744 9.678877
v -9.090578 1.566744 9.494496
v -8.776190 1.566744 9.310116
v -8.461803 1.566744 9.125734
v -8.147415 1.566744 8.941353
v -7.833028 1.566744 8.756972
v -7.518641 1.566744 8.572592
v -7.204253 1.566744 8.388210
v -6.889866 1.566744 8.203830
v -6.575479 1.566744 8.019448
v -6.261091 1.566744 7.835067
v -9.404965 2.077732 9.678877
v -9.090578 2.077732 9.494496
v -8.776190 2.077732 9.310116
v -8.461803 2.077732 9.125734
v -8.147415 2.077732 8.941353
v -7.833028 2.077732 8.756972
v -7.518641 2.077732 8.572592
v -7.204253 2.077732 8.388210
v -6.889866 2.077732 8.203830
v -6.575479 2.077732 8.019448
v -6.261091 2.077732 7.835067
v -9.404965 2.588719 9.678877
v -9.090578 2.588719 9.494496
v -8.776190 2.588719 9.310116
v -8.461803 2.588719 9.125734
v -8.147415 2.588719 8.941353
v -7.833028 2.588719 8.756972
v -7.518641 2.588719 8.572592
v -7.204253 2.588719 8.388210
v -6.889866 2.588719 8.203830
v -6.575479 2.588719 8.019448
v -6.261091 2.588719 7.835067
v -9.404965 3.099707 9.678877
v -9.090578 3.099707 9.494496
v -8.776190 3.099707 9.310116
v -8.461803 3.099707 9.125734
v -8.147415 3.099707 8.941353
v -7.833028 3.099707 8.756972
v -7.518641 3.099707 8.572592
v -7.204253 3.099707 8.388210
v -6.889866 3.099707 8.203830
v -6.575479 3.099707 8.019448
v -6.261091 3.099707 7.835067
v -9.404965 3.610695 9.678877
v -9.090578 3.610695 9.494496
v -8.776190 3.610695 9.310116
v -8.461803 3.610695 9.125734
v -8.147415 3.610695 8.941353
v -7.833028 3.610695 8.756972
v -7.518641 3.610695 8.572592
v -7.204253 3.610695 8.388210
v -6.889866 3.610695 8.203830
v -6.575479 3.610695 8.019448
v -6.261091 3.610695 7.835067
v -9.404965 4.121682 9.678877
v -9.090578 4.121682 9.494495
v -8.776190 4.121682 9.310115
v -8.461803 4.121682 9.125734
v -8.147415 4.121682 8.941353
v -7.833028 4.121682 8.756971
v -7.518641 4.121682 8.572591
v -7.204253 4.121682 8.388210
v -6.889866 4.121682 8.203829
v -6.575479 4.121682 8.019447
v -6.261091 4.121682 7.835067
v 12.017693 0.462953 -3.592163
v 16.133545 0.462953 -0.273600
v 12.958450 0.462953 -2.833647
v 15.175262 0.462953 -1.046267
v 12.977463 0.462952 -2.818333
v 13.068719 0.462952 -2.744747
v 13.289261 0.462952 -2.566923
v 13.817797 0.462952 -2.140762
v 14.080162 0.462952 -1.929226
v 14.342528 0.462953 -1.717667
v 14.840649 0.462953 -1.316055
v 15.049785 0.462952 -1.147432
v 15.160052 0.462952 -1.058521
v 13.974016 8.173287 -2.014811
v 14.169456 8.173279 -1.857225
v 12.086458 1.869493 -3.536737
v 12.389909 3.541008 -3.292067
v 12.752503 4.852453 -2.999704
v 13.163959 5.737763 -2.667946
v 13.405693 6.177115 -2.473042
v 13.444267 7.392764 -2.441938
v 14.688921 7.429102 -1.438381
v 14.722350 6.163903 -1.411434
v 15.177526 5.331446 -1.044426
v 15.594125 4.178560 -0.708522
v 15.977298 2.513653 -0.399574
v 18.725275 2.243832 3.563316
v 18.905933 2.171220 3.637698
v 18.980312 2.127642 3.827448
v 18.904858 2.138623 4.021413
v 18.723753 2.197733 4.105972
v 19.133648 3.910988 3.786127
v 19.314749 3.851879 3.701567
v 19.495413 3.779267 3.775951
v 19.569799 3.735688 3.965700
v 19.494337 3.746671 4.159666
v 19.313236 3.805781 4.244224
v 19.132568 3.878392 4.169844
v 18.700228 2.154537 3.828951
v 19.338274 3.895075 3.978593
v 19.213718 2.215867 7.232335
v 19.395372 2.145385 7.158320
v 19.476475 2.118148 6.968252
v 19.409517 2.150111 6.773473
v 19.233717 2.222555 6.688080
v 19.052061 2.293037 6.762097
v 19.850321 3.811271 7.275401
v 20.031981 3.740785 7.201386
v 20.113081 3.713548 7.011318
v 20.046122 3.745512 6.816538
v 19.870321 3.817955 6.731144
v 19.688665 3.888437 6.805161
v 19.197493 2.153487 6.958433
v 19.886549 3.880336 7.005048
vn 0.5059 -0.0000 0.8626
vn -0.6277 -0.0000 0.7785
vn -0.2386 -0.9128 -0.3313
vn -0.2264 -0.9178 -0.3263
vn -0.2321 -0.9152 -0.3295
vn -0.0982 -0.9762 -0.1935
vn -0.0931 -0.9791 -0.1806
vn -0.0949 -0.9777 -0.1873
vn -0.0937 -0.9955 0.0124
vn -0.0988 -0.9948 0.0255
vn -0.0955 -0.9952 0.0192
vn -0.2278 -0.9595 0.1655
vn -0.2400 -0.9555 0.1713
vn -0.2336 -0.9575 0.1692
vn 0.2400 0.9555 -0.1713
vn 0.2278 0.9595 -0.1655
vn 0.2335 0.9575 -0.1691
vn 0.4341 0.8844 -0.1713
vn 0.4219 0.8893 -0.1764
vn 0.4283 0.8866 -0.1746
vn 0.5674 0.8230 -0.0257
vn 0.5624 0.8260 -0.0385
vn 0.5656 0.8241 -0.0324
vn 0.5618 0.8074 0.1804
vn 0.5669 0.8066 0.1673
vn 0.5649 0.8066 0.1741
vn 0.4205 0.8466 0.3262
vn 0.4328 0.8426 0.3205
vn 0.4268 0.8443 0.3240
vn 0.2264 0.9178 0.3263
vn 0.2386 0.9129 0.3313
vn 0.2319 0.9152 0.3297
vn -0.3582 -0.8989 0.2522
vn -0.1878 -0.9651 0.1828
vn -0.2696 -0.9353 0.2290
vn -0.1761 -0.9694 0.1710
vn -0.1000 -0.9950 -0.0073
vn -0.1282 -0.9879 0.0869
vn -0.0993 -0.9948 -0.0245
vn -0.1622 -0.9648 -0.2072
vn -0.1206 -0.9854 -0.1202
vn -0.1730 -0.9601 -0.2197
vn -0.3379 -0.8921 -0.2998
vn -0.2512 -0.9292 -0.2710
vn -0.3539 -0.8858 -0.3003
vn -0.5243 -0.8196 -0.2309
vn -0.4436 -0.8523 -0.2772
vn 0.5243 0.8196 0.2309
vn 0.3539 0.8858 0.3003
vn 0.4436 0.8523 0.2772
vn 0.6121 0.7897 0.0408
vn 0.5360 0.8153 0.2191
vn 0.5851 0.7997 0.1350
vn 0.5499 0.8199 -0.1591
vn 0.6127 0.7899 0.0236
vn 0.5926 0.8022 -0.0721
vn 0.3741 0.8925 -0.2517
vn 0.5391 0.8246 -0.1716
vn 0.4620 0.8584 -0.2229
vn 0.1878 0.9651 -0.1828
vn 0.3582 0.8989 -0.2522
vn 0.2696 0.9353 -0.2290
vn -0.0421 -0.9978 0.0516
vn -0.0218 0.9994 0.0279
vn -0.0658 -0.9944 0.0824
vn -0.6276 -0.0000 0.7785
vn -0.0342 -0.9985 0.0421
vn -0.0491 -0.9967 0.0642
vn -0.0868 0.9905 0.1064
vt 0.100000 0.000000
vt 0.000000 0.100000
vt 0.000000 0.000000
vt 0.200000 0.000000
vt 0.100000 0.100000
vt 0.300000 0.000000
vt 0.200000 0.100000
vt 0.400000 0.000000
vt 0.300000 0.100000
vt 0.500000 0.000000
vt 0.400000 0.100000
vt 0.600000 0.000000
vt 0.500000 0.100000
vt 0.700000 0.000000
vt 0.600000 0.100000
vt 0.800000 0.000000
vt 0.700000 0.100000
vt 0.900000 0.000000
vt 0.800000 0.100000
vt 1.000000 0.000000
vt 0.900000 0.100000
vt 0.000000 0.200000
vt 0.100000 0.200000
vt 0.200000 0.200000
vt 0.300000 0.200000
vt 0.400000 0.200000
vt 0.500000 0.200000
vt 0.600000 0.200000
vt 0.700000 0.200000
vt 0.800000 0.200000
vt 1.000000 0.100000
vt 0.900000 0.200000
vt 0.000000 0.300000
vt 0.100000 0.300000
vt 0.200000 0.300000
vt 0.300000 0.300000
vt 0.400000 0.300000
vt 0.500000 0.300000
vt 0.600000 0.300000
vt 0.700000 0.300000
vt 0.800000 0.300000
vt 1.000000 0.200000
vt 0.900000 0.300000
vt 0.000000 0.400000
vt 0.100000 0.400000
vt 0.200000 0.400000
vt 0.300000 0.400000
vt 0.400000 0.400000
vt 0.500000 0.400000
vt 0.600000 0.400000
vt 0.700000 0.400000
vt 0.800000 0.400000
vt 1.000000 0.300000
vt 0.900000 0.400000
vt 0.000000 0.500000
vt 0.100000 0.500000
vt 0.200000 0.500000
vt 0.300000 0.500000
vt 0.400000 0.500000
vt 0.500000 0.500000
vt 0.600000 0.500000
vt 0.700000 0.500000
vt 0.800000 0.500000
vt 1.000000 0.400000
vt 0.900000 0.500000
vt 0.000000 0.600000
vt 0.100000 0.600000
vt 0.200000 0.600000
vt 0.300000 0.600000
vt 0.400000 0.600000
vt 0.500000 0.600000
vt 0.600000 0.600000
vt 0.700000 0.600000
vt 0.800000 0.600000
vt 1.000000 0.500000
vt 0.900000 0.600000
vt 0.000000 0.700000
vt 0.100000 0.700000
vt 0.200000 0.700000
vt 0.300000 0.700000
vt 0.400000 0.700000
vt 0.500000 0.700000
vt 0.600000 0.700000
vt 0.700000 0.700000
vt 0.800000 0.700000
vt 1.000000 0.600000
vt 0.900000 0.700000
vt 0.000000 0.800000
vt 0.100000 0.800000
vt 0.200000 0.800000
vt 0.300000 0.800000
vt 0.400000 0.800000
vt 0.500000 0.800000
vt 0.600000 0.800000
vt 0.700000 0.800000
vt 0.800000 0.800000
vt 1.000000 0.700000
vt 0.900000 0.800000
vt 0.000000 0.900000
vt 0.100000 0.900000
vt 0.200000 0.900000
vt 0.300000 0.900000
vt 0.400000 0.900000
vt 0.500000 0.900000
vt 0.600000 0.900000
vt 0.700000 0.900000
vt 0.800000 0.900000
vt 1.000000 0.800000
vt 0.900000 0.900000
vt 0.000000 1.000000
vt 0.100000 1.000000
vt 0.200000 1.000000
vt 0.300000 1.000000
vt 0.400000 1.000000
vt 0.500000 1.000000
vt 0.600000 1.000000
vt 0.700000 1.000000
vt 0.800000 1.000000
vt 1.000000 0.900000
vt 0.900000 1.000000
vt 0.659682 0.265968
vt 0.450605 0.739391
vt 0.231245 0.741105
vt 0.250000 0.125001
vt 0.125000 0.125000
vt 0.187500 0.000000
vt 0.375000 0.125000
vt 0.312500 0.000000
vt 0.500000 0.125000
vt 0.437500 0.000000
vt 0.624999 0.125001
vt 0.562500 0.000000
vt 0.000001 0.875000
vt 0.125000 0.875000
vt 0.062500 1.000000
vt 0.250001 0.875000
vt 0.187500 1.000000
vt 0.375000 0.875000
vt 0.312500 1.000000
vt 0.500000 0.874999
vt 0.437500 1.000000
vt 0.625000 0.875000
vt 0.562500 1.000000
vt 0.750000 0.875000
vt 0.687500 1.000000
vt 0.250000 0.125000
vt 0.500000 0.125001
vt 0.625000 0.125000
vt 0.750000 0.125000
vt 0.687500 0.000000
vt 0.250000 0.874999
vt 0.500000 0.875000
vt 1.000000 1.000000
vt 0.011457 0.182423
vt 0.156733 0.000000
vt 0.159901 0.118631
vt 0.175104 0.278906
vt 0.211847 0.407505
vt 0.299903 0.515833
vt 0.343614 0.533571
vt 0.062012 0.399212
vt 0.190972 0.684123
vt 0.122422 0.569302
vt 0.325930 1.000000
vt 0.237671 0.898770
vt 0.387325 0.515199
vt 0.470313 0.411306
vt 0.505155 0.279539
vt 0.523527 0.117998
vt 0.526061 0.000000
vt 0.358491 1.000000
vt 0.685714 0.000000
vt 0.445035 0.903483
vt 0.595845 0.481900
vt 0.526438 0.631425
s 1
g doors_initialShadingGroup
usemtl initialShadingGroup
f 2/1/1 12/2/1 1/3/1
f 3/4/1 13/5/1 2/1/1
f 4/6/1 14/7/1 3/4/1
f 5/8/1 15/9/1 4/6/1
f 6/10/1 16/11/1 5/8/1
f 7/12/1 17/13/1 6/10/1
f 8/14/1 18/15/1 7/12/1
f 9/16/1 19/17/1 8/14/1
f 10/18/1 20/19/1 9/16/1
f 11/20/1 21/21/1 10/18/1
f 13/5/1 23/22/1 12/2/1
f 14/7/1 24/23/1 13/5/1
f 15/9/1 25/24/1 14/7/1
f 16/11/1 26/25/1 15/9/1
f 17/13/1 27/26/1 16/11/1
f 18/15/1 28/27/1 17/13/1
f 19/17/1 29/28/1 18/15/1
f 20/19/1 30/29/1 19/17/1
f 21/21/1 31/30/1 20/19/1
f 22/31/1 32/32/1 21/21/1
f 24/23/1 34/33/1 23/22/1
f 25/24/1 35/34/1 24/23/1
f 26/25/1 36/35/1 25/24/1
f 27/26/1 37/36/1 26/25/1
f 28/27/1 38/37/1 27/26/1
f 29/28/1 39/38/1 28/27/1
f 30/29/1 40/39/1 29/28/1
f 31/30/1 41/40/1 30/29/1
f 32/32/1 42/41/1 31/30/1
f 33/42/1 43/43/1 32/32/1
f 35/34/1 45/44/1 34/33/1
f 36/35/1 46/45/1 35/34/1
f 37/36/1 47/46/1 36/35/1
f 38/37/1 48/47/1 37/36/1
f 39/38/1 49/48/1 38/37/1
f 40/39/1 50/49/1 39/38/1
f 41/40/1 51/50/1 40/39/1
f 42/41/1 52/51/1 41/40/1
f 43/43/1 53/52/1 42/41/1
f 44/53/1 54/54/1 43/43/1
f 46/45/1 56/55/1 45/44/1
f 47/46/1 57/56/1 46/45/1
f 48/47/1 58/57/1 47/46/1
f 49/48/1 59/58/1 48/47/1
f 50/49/1 60/59/1 49/48/1
f 51/50/1 61/60/1 50/49/1
f 52/51/1 62/61/1 51/50/1
f 53/52/1 63/62/1 52/51/1
f 54/54/1 64/63/1 53/52/1
f 55/64/1 65/65/1 54/54/1
f 57/56/1 67/66/1 56/55/1
f 58/57/1 68/67/1 57/56/1
f 59/58/1 69/68/1 58/57/1
f 60/59/1 70/69/1 59/58/1
f 61/60/1 71/70/1 60/59/1
f 62/61/1 72/71/1 61/60/1
f 63/62/1 73/72/1 62/61/1
f 64/63/1 74/73/1 63/62/1
f 65/65/1 75/74/1 64/63/1
f 66/75/1 76/76/1 65/65/1
f 68/67/1 78/77/1 67/66/1
f 69/68/1 79/78/1 68/67/1
f 70/69/1 80/79/1 69/68/1
f 71/70/1 81/80/1 70/69/1
f 72/71/1 82/81/1 71/70/1
f 73/72/1 83/82/1 72/71/1
f 74/73/1 84/83/1 73/72/1
f 75/74/1 85/84/1 74/73/1
f 76/76/1 86/85/1 75/74/1
f 77/86/1 87/87/1 76/76/1
f 79/78/1 89/88/1 78/77/1
f 80/79/1 90/89/1 79/78/1
f 81/80/1 91/90/1 80/79/1
f 82/81/1 92/91/1 81/80/1
f 83/82/1 93/92/1 82/81/1
f 84/83/1 94/93/1 83/82/1
f 85/84/1 95/94/1 84/83/1
f 86/85/1 96/95/1 85/84/1
f 87/87/1 97/96/1 86/85/1
f 88/97/1 98/98/1 87/87/1
f 90/89/1 100/99/1 89/88/1
f 91/90/1 101/100/1 90/89/1
f 92/91/1 102/101/1 91/90/1
f 93/92/1 103/102/1 92/91/1
f 94/93/1 104/103/1 93/92/1
f 95/94/1 105/104/1 94/93/1
f 96/95/1 106/105/1 95/94/1
f 97/96/1 107/106/1 96/95/1
f 98/98/1 108/107/1 97/96/1
f 99/108/1 109/109/1 98/98/1
f 101/100/1 111/110/1 100/99/1
f 102/101/1 112/111/1 101/100/1
f 103/102/1 113/112/1 102/101/1
f 104/103/1 114/113/1 103/102/1
f 105/104/1 115/114/1 104/103/1
f 106/105/1 116/115/1 105/104/1
f 107/106/1 117/116/1 106/105/1
f 108/107/1 118/117/1 107/106/1
f 109/109/1 119/118/1 108/107/1
f 110/119/1 120/120/1 109/109/1
s 0
f 147/121/2 144/122/2 141/123/2
s 1
f 149/124/3 148/125/4 160/126/5
f 150/127/6 149/124/7 160/128/8
f 151/129/9 150/127/10 160/130/11
f 152/131/12 151/129/13 160/132/14
f 153/133/15 154/134/16 161/135/17
f 154/134/18 155/136/19 161/137/20
f 155/136/21 156/138/22 161/139/23
f 156/138/24 157/140/25 161/141/26
f 157/140/27 158/142/28 161/143/29
f 158/142/30 159/144/31 161/145/32
f 163/146/33 162/125/34 174/126/35
f 164/127/36 163/146/37 174/128/38
f 165/147/39 164/127/40 174/130/41
f 166/148/42 165/147/43 174/132/44
f 167/149/45 166/148/46 174/150/47
f 168/134/48 169/151/49 175/137/50
f 169/151/51 170/138/52 175/139/53
f 170/138/54 171/152/55 175/141/56
f 171/152/57 172/142/58 175/143/59
f 172/142/60 173/144/61 175/145/62
f 2/1/1 13/5/1 12/2/1
f 3/4/1 14/7/1 13/5/1
f 4/6/1 15/9/1 14/7/1
f 5/8/1 16/11/1 15/9/1
f 6/10/1 17/13/1 16/11/1
f 7/12/1 18/15/1 17/13/1
f 8/14/1 19/17/1 18/15/1
f 9/16/1 20/19/1 19/17/1
f 10/18/1 21/21/1 20/19/1
f 11/20/1 22/31/1 21/21/1
f 13/5/1 24/23/1 23/22/1
f 14/7/1 25/24/1 24/23/1
f 15/9/1 26/25/1 25/24/1
f 16/11/1 27/26/1 26/25/1
f 17/13/1 28/27/1 27/26/1
f 18/15/1 29/28/1 28/27/1
f 19/17/1 30/29/1 29/28/1
f 20/19/1 31/30/1 30/29/1
f 21/21/1 32/32/1 31/30/1
f 22/31/1 33/42/1 32/32/1
f 24/23/1 35/34/1 34/33/1
f 25/24/1 36/35/1 35/34/1
f 26/25/1 37/36/1 36/35/1
f 27/26/1 38/37/1 37/36/1
f 28/27/1 39/38/1 38/37/1
f 29/28/1 40/39/1 39/38/1
f 30/29/1 41/40/1 40/39/1
f 31/30/1 42/41/1 41/40/1
f 32/32/1 43/43/1 42/41/1
f 33/42/1 44/53/1 43/43/1
f 35/34/1 46/45/1 45/44/1
f 36/35/1 47/46/1 46/45/1
f 37/36/1 48/47/1 47/46/1
f 38/37/1 49/48/1 48/47/1
f 39/38/1 50/49/1 49/48/1
f 40/39/1 51/50/1 50/49/1
f 41/40/1 52/51/1 51/50/1
f 42/41/1 53/52/1 52/51/1
f 43/43/1 54/54/1 53/52/1
f 44/53/1 55/64/1 54/54/1
f 46/45/1 57/56/1 56/55/1
f 47/46/1 58/57/1 57/56/1
f 48/47/1 59/58/1 58/57/1
f 49/48/1 60/59/1 59/58/1
f 50/49/1 61/60/1 60/59/1
f 51/50/1 62/61/1 61/60/1
f 52/51/1 63/62/1 62/61/1
f 53/52/1 64/63/1 63/62/1
f 54/54/1 65/65/1 64/63/1
f 55/64/1 66/75/1 65/65/1
f 57/56/1 68/67/1 67/66/1
f 58/57/1 69/68/1 68/67/1
f 59/58/1 70/69/1 69/68/1
f 60/59/1 71/70/1 70/69/1
f 61/60/1 72/71/1 71/70/1
f 62/61/1 73/72/1 72/71/1
f 63/62/1 74/73/1 73/72/1
f 64/63/1 75/74/1 74/73/1
f 65/65/1 76/76/1 75/74/1
f 66/75/1 77/86/1 76/76/1
f 68/67/1 79/78/1 78/77/1
f 69/68/1 80/79/1 79/78/1
f 70/69/1 81/80/1 80/79/1
f 71/70/1 82/81/1 81/80/1
f 72/71/1 83/82/1 82/81/1
f 73/72/1 84/83/1 83/82/1
f 74/73/1 85/84/1 84/83/1
f 75/74/1 86/85/1 85/84/1
f 76/76/1 87/87/1 86/85/1
f 77/86/1 88/97/1 87/87/1
f 79/78/1 90/89/1 89/88/1
f 80/79/1 91/90/1 90/89/1
f 81/80/1 92/91/1 91/90/1
f 82/81/1 93/92/1 92/91/1
f 83/82/1 94/93/1 93/92/1
f 84/83/1 95/94/1 94/93/1
f 85/84/1 96/95/1 95/94/1
f 86/85/1 97/96/1 96/95/1
f 87/87/1 98/98/1 97/96/1
f 88/97/1 99/108/1 98/98/1
f 90/89/1 101/100/1 100/99/1
f 91/90/1 102/101/1 101/100/1
f 92/91/1 103/102/1 102/101/1
f 93/92/1 104/103/1 103/102/1
f 94/93/1 105/104/1 104/103/1
f 95/94/1 106/105/1 105/104/1
f 96/95/1 107/106/1 106/105/1
f 97/96/1 108/107/1 107/106/1
f 98/98/1 109/109/1 108/107/1
f 99/108/1 110/119/1 109/109/1
f 101/100/1 112/111/1 111/110/1
f 102/101/1 113/112/1 112/111/1
f 103/102/1 114/113/1 113/112/1
f 104/103/1 115/114/1 114/113/1
f 105/104/1 116/115/1 115/114/1
f 106/105/1 117/116/1 116/115/1
f 107/106/1 118/117/1 117/116/1
f 108/107/1 119/118/1 118/117/1
f 109/109/1 120/120/1 119/118/1
f 110/119/1 121/153/1 120/120/1
s 0
f 137/154/2 122/3/2 124/155/2
f 124/155/63 126/156/63 127/157/63
f 128/158/64 129/159/64 130/160/64
f 124/155/65 127/157/65 128/158/65
f 138/161/2 137/154/2 124/155/2
f 140/162/2 139/163/2 138/161/2
f 135/164/2 142/165/2 141/123/2
f 141/123/66 140/162/66 138/161/66
f 138/161/2 124/155/2 128/158/2
f 128/158/67 130/160/67 131/166/67
f 132/167/68 133/168/68 134/169/68
f 138/161/2 128/158/2 131/166/2
f 132/167/69 134/169/69 125/170/69
f 138/161/2 131/166/2 132/167/2
f 136/171/2 135/164/2 141/123/2
f 141/123/2 138/161/2 132/167/2
f 125/170/2 123/172/2 147/121/2
f 141/123/2 132/167/2 125/170/2
f 143/173/2 136/171/2 141/123/2
f 146/174/2 145/175/2 144/122/2
f 144/122/2 143/173/2 141/123/2
f 141/123/2 125/170/2 147/121/2
f 147/121/2 146/174/2 144/122/2
